<?xml version="1.0" standalone="no"?><!DOCTYPE svg PUBLIC "-//W3C//DTD SVG 1.1//EN"
  "http://www.w3.org/Graphics/SVG/1.1/DTD/svg11.dtd">
<svg t="1534235912142" class="icon" style="" viewBox="0 0 1024 1024" version="1.1" xmlns="http://www.w3.org/2000/svg"
     p-id="30703" xmlns:xlink="http://www.w3.org/1999/xlink" width="32" height="32">
  <defs>
    <style type="text/css"></style>
  </defs>
  <path
    d="M696.5 514c-101.3 0-183.4 82.1-183.4 183.4s82.1 183.4 183.4 183.4 183.4-82.1 183.4-183.4S797.8 514 696.5 514z"
    fill="#90DB82" p-id="30704"></path>
  <path
    d="M707.6 459.7c-138.9 0-251.6 112-251.6 250.1S568.7 960 707.6 960s251.6-112 251.6-250.1-112.6-250.2-251.6-250.2z m0 424.8c-97 0-175.6-78.2-175.6-174.6s78.6-174.6 175.6-174.6 175.6 78.2 175.6 174.6-78.6 174.6-175.6 174.6z"
    fill="#90DB82" p-id="30705"></path>
  <path
    d="M456 705.6c-15 2.3-30.3 3.4-46 3.4-167.2 0-302.8-134.5-302.8-300.5S242.8 108 410.1 108s302.8 134.5 302.8 300.5c0 17.4-1.5 34.5-4.4 51.2"
    fill="#90DB82" p-id="30706"></path>
  <path
    d="M696.5 458.1c131.9 0 239.2 107.3 239.2 239.2S828.4 936.5 696.5 936.5 457.3 829.2 457.3 697.3s107.3-239.2 239.2-239.2m0-23.4c-145.1 0-262.7 117.6-262.7 262.7S551.5 960 696.5 960c145.1 0 262.7-117.6 262.7-262.7S841.6 434.7 696.5 434.7z"
    fill="" p-id="30707"></path>
  <path d="M436.3 392.4a48.4 48 0 1 0 96.8 0 48.4 48 0 1 0-96.8 0Z" fill="#fff" p-id="30708"></path>
  <path d="M255.4 392.4a48.4 48 0 1 0 96.8 0 48.4 48 0 1 0-96.8 0Z" fill="#fff" p-id="30709"></path>
  <path d="M345.9 482.9a48.4 48 0 1 0 96.8 0 48.4 48 0 1 0-96.8 0Z" fill="#fff" p-id="30710"></path>
  <path d="M345.9 301.9a48.4 48 0 1 0 96.8 0 48.4 48 0 1 0-96.8 0Z" fill="#fff" p-id="30711"></path>
  <path d="M780.4 697.3m-36.7 0a36.7 36.7 0 1 0 73.4 0 36.7 36.7 0 1 0-73.4 0Z" fill="#FFFFFF" p-id="30712"></path>
  <path d="M612.7 697.3m-36.7 0a36.7 36.7 0 1 0 73.4 0 36.7 36.7 0 1 0-73.4 0Z" fill="#FFFFFF" p-id="30713"></path>
  <path
    d="M394.2 720.8c-182.4 0-330.9-147.3-330.9-328.4S211.8 64 394.2 64s330.9 147.3 330.9 328.4c0 18.7-1.6 37.5-4.8 55.9l-23.1-4c3-17 4.4-34.5 4.4-51.9 0-168.1-137.9-304.9-307.4-304.9S86.8 224.3 86.8 392.4s137.9 304.9 307.4 304.9c15.6 0 31.4-1.2 46.7-3.5l3.5 23.2c-16.4 2.5-33.3 3.8-50.2 3.8z"
    fill="" p-id="30714"></path>
  <path
    d="M394.2 644.1c-140 0-253.9-112.9-253.9-251.7s113.9-251.7 253.9-251.7 253.9 112.9 253.9 251.7c0 24-3.4 47.7-10.1 70.5l-22.5-6.6c6.1-20.7 9.2-42.2 9.2-63.9 0-125.9-103.4-228.3-230.4-228.3S163.8 266.5 163.8 392.4s103.4 228.3 230.4 228.3c17.9 0 35.7-2 52.9-6.1l5.3 22.9c-18.9 4.4-38.5 6.6-58.2 6.6z"
    fill="" p-id="30715"></path>
  <path
    d="M484.7 367.8c13.8 0 25 11 25 24.6 0 13.5-11.2 24.6-25 24.6s-25-11-25-24.6c0.1-13.6 11.3-24.6 25-24.6m0-23.4c-26.7 0-48.4 21.5-48.4 48s21.7 48 48.4 48 48.4-21.5 48.4-48c0.1-26.5-21.6-48-48.4-48zM303.8 367.8c13.8 0 25 11 25 24.6 0 13.5-11.2 24.6-25 24.6s-25-11-25-24.6 11.2-24.6 25-24.6m0-23.4c-26.7 0-48.4 21.5-48.4 48s21.7 48 48.4 48 48.4-21.5 48.4-48-21.7-48-48.4-48zM394.3 458.3c13.8 0 25 11 25 24.6s-11.2 24.6-25 24.6-25-11-25-24.6 11.2-24.6 25-24.6m0-23.4c-26.7 0-48.4 21.5-48.4 48s21.7 48 48.4 48 48.4-21.5 48.4-48-21.7-48-48.4-48zM394.3 277.4c13.8 0 25 11 25 24.6 0 13.5-11.2 24.6-25 24.6s-25-11-25-24.6 11.2-24.6 25-24.6m0-23.5c-26.7 0-48.4 21.5-48.4 48s21.7 48 48.4 48 48.4-21.5 48.4-48-21.7-48-48.4-48zM696.5 892.4c-107.6 0-195.1-87.5-195.1-195.1s87.6-195 195.1-195c107.6 0 195.1 87.5 195.1 195.1s-87.5 195-195.1 195z m0-366.7c-94.6 0-171.6 77-171.6 171.6S601.9 869 696.5 869s171.6-77 171.6-171.6-76.9-171.7-171.6-171.7z"
    fill="" p-id="30716"></path>
  <path
    d="M780.4 684.1c7.3 0 13.2 5.9 13.2 13.2s-5.9 13.2-13.2 13.2-13.2-5.9-13.2-13.2 5.9-13.2 13.2-13.2m0-23.4c-20.3 0-36.7 16.4-36.7 36.7s16.4 36.7 36.7 36.7 36.7-16.4 36.7-36.7c-0.1-20.3-16.5-36.7-36.7-36.7zM612.7 684.1c7.3 0 13.2 5.9 13.2 13.2s-5.9 13.2-13.2 13.2-13.2-5.9-13.2-13.2 5.9-13.2 13.2-13.2m0-23.4c-20.3 0-36.7 16.4-36.7 36.7s16.4 36.7 36.7 36.7 36.7-16.4 36.7-36.7c0-20.3-16.4-36.7-36.7-36.7z"
    fill="" p-id="30717"></path>
</svg>
