<?xml version="1.0" standalone="no"?><!DOCTYPE svg PUBLIC "-//W3C//DTD SVG 1.1//EN" "http://www.w3.org/Graphics/SVG/1.1/DTD/svg11.dtd"><svg t="1532509224566" class="icon" style="" viewBox="0 0 1024 1024" version="1.1" xmlns="http://www.w3.org/2000/svg" p-id="4638" xmlns:xlink="http://www.w3.org/1999/xlink" width="64" height="64"><defs><style type="text/css"></style></defs><path d="M512 1024c-284.444444 0-512-227.555556-512-512s227.555556-512 512-512 512 227.555556 512 512-227.555556 512-512 512zM512 113.777778C290.133333 113.777778 113.777778 290.133333 113.777778 512s176.355556 398.222222 398.222222 398.222222 398.222222-176.355556 398.222222-398.222222-176.355556-398.222222-398.222222-398.222222z" fill="#bfbfbf" p-id="4639"></path><path d="M574.577778 250.311111l79.644444 79.644445-204.8 204.8-79.644444-85.333334zM370.346667 692.167111l201.102222-201.159111 80.497778 80.497778-201.159111 201.102222z" fill="#bfbfbf" p-id="4640"></path><path d="M654.222222 574.577778l-79.644444 79.644444-204.8-204.8 79.644444-79.644444z" fill="#bfbfbf" p-id="4641"></path></svg>