<?xml version="1.0" standalone="no"?><!DOCTYPE svg PUBLIC "-//W3C//DTD SVG 1.1//EN" "http://www.w3.org/Graphics/SVG/1.1/DTD/svg11.dtd"><svg t="1532508780622" class="icon" style="" viewBox="0 0 1095 1024" version="1.1" xmlns="http://www.w3.org/2000/svg" p-id="1863" xmlns:xlink="http://www.w3.org/1999/xlink" width="68.4375" height="64"><defs><style type="text/css"></style></defs><path d="M452.465116 309.581395h23.813954c26.195349 0 47.627907-21.432558 47.627907-47.627907V47.627907c0-26.195349-21.432558-47.627907-47.627907-47.627907h-23.813954c-26.195349 0-47.627907 21.432558-47.627907 47.627907v214.325581c0 26.195349 21.432558 47.627907 47.627907 47.627907zM119.069767 309.581395h142.883721c26.195349 0 47.627907-21.432558 47.627907-47.627907V47.627907c0-26.195349-21.432558-47.627907-47.627907-47.627907H119.069767C92.874419 0 71.44186 21.432558 71.44186 47.627907v214.325581c0 26.195349 21.432558 47.627907 47.627907 47.627907zM642.976744 309.581395h309.581396c26.195349 0 47.627907-21.432558 47.627907-47.627907V47.627907c0-26.195349-21.432558-47.627907-47.627907-47.627907H642.976744c-26.195349 0-47.627907 21.432558-47.627907 47.627907v214.325581c0 26.195349 21.432558 47.627907 47.627907 47.627907zM1047.813953 357.209302H47.627907c-26.195349 0-47.627907 21.432558-47.627907 47.627907v23.813954c0 26.195349 21.432558 47.627907 47.627907 47.627907h1000.186046c26.195349 0 47.627907-21.432558 47.627907-47.627907v-23.813954c0-26.195349-21.432558-47.627907-47.627907-47.627907zM952.55814 523.906977H642.976744c-26.195349 0-47.627907 21.432558-47.627907 47.627907v309.581395c0 26.195349 21.432558 47.627907 47.627907 47.627907h166.697675v47.627907c0 26.195349 21.432558 47.627907 47.627907 47.627907h95.255814c26.195349 0 47.627907-21.432558 47.627907-47.627907V571.534884c0-26.195349-21.432558-47.627907-47.627907-47.627907zM404.837209 523.906977H119.069767c-26.195349 0-47.627907 21.432558-47.627907 47.627907v404.837209c0 26.195349 21.432558 47.627907 47.627907 47.627907h285.767442c26.195349 0 47.627907-21.432558 47.627907-47.627907V571.534884c0-26.195349-21.432558-47.627907-47.627907-47.627907z" p-id="1864" fill="#bfbfbf"></path></svg>