<?xml version="1.0" standalone="no"?><!DOCTYPE svg PUBLIC "-//W3C//DTD SVG 1.1//EN" "http://www.w3.org/Graphics/SVG/1.1/DTD/svg11.dtd"><svg t="1543480731905" class="icon" style="" viewBox="0 0 1024 1024" version="1.1" xmlns="http://www.w3.org/2000/svg" p-id="5583" xmlns:xlink="http://www.w3.org/1999/xlink" width="20" height="20"><defs><style type="text/css"></style></defs><path d="M512 1021.891765C230.851765 1021.891765 2.108235 793.148235 2.108235 512S230.851765 2.108235 512 2.108235 1021.891765 230.851765 1021.891765 512 793.148235 1021.891765 512 1021.891765z m0-963.764706C261.722353 58.127059 58.127059 261.722353 58.127059 512S261.722353 965.872941 512 965.872941 965.872941 762.277647 965.872941 512 762.277647 58.127059 512 58.127059z" fill="#FF6666" p-id="5584"></path><path d="M355.207529 350.780235a154.262588 154.262588 0 0 1 34.846118-57.946353 160.496941 160.496941 0 0 1 55.988706-37.195294c21.925647-8.884706 46.983529-13.312 75.173647-13.312a188.235294 188.235294 0 0 1 61.470118 9.788236 152.847059 152.847059 0 0 1 50.507294 28.581647 134.625882 134.625882 0 0 1 34.454588 45.417411c8.342588 17.739294 12.528941 38.128941 12.528941 61.078589 0 29.244235-6.384941 54.031059-19.184941 74.390588a305.573647 305.573647 0 0 1-48.941176 58.729412c-16.173176 16.173176-29.123765 28.852706-38.761412 37.978353-9.667765 9.155765-16.835765 18.160941-21.534118 27.015529-4.698353 8.854588-7.830588 19.727059-9.396706 32.496941-1.566118 12.8-2.620235 20.781176-3.132235 44.784941h-49.332706c-0.512-24.003765 0.783059-33.671529 3.915294-49.874823a152.786824 152.786824 0 0 1 15.269647-43.851294c7.047529-13.040941 16.444235-25.569882 28.190118-37.586824s25.961412-25.569882 42.676706-40.719059c14.607059-13.552941 26.744471-28.702118 36.412235-45.417411 9.667765-16.685176 14.486588-35.237647 14.486588-55.597177 0-15.661176-3.011765-29.997176-9.005176-43.068235a100.472471 100.472471 0 0 0-24.274824-33.28 114.296471 114.296471 0 0 0-35.629176-21.534118 119.265882 119.265882 0 0 0-43.068235-7.830588c-20.871529 0-39.424 3.674353-55.597177 10.962823-16.173176 7.318588-29.515294 17.347765-39.936 30.147765a129.626353 129.626353 0 0 0-23.491765 45.025882A148.389647 148.389647 0 0 0 392.794353 421.647059h-49.332706c0-27.678118 3.915294-48.158118 11.745882-70.866824zM482.063059 722.823529H542.117647v60.235295h-60.054588v-60.235295z" fill="#FF6666" p-id="5585"></path></svg>