<?xml version="1.0" standalone="no"?><!DOCTYPE svg PUBLIC "-//W3C//DTD SVG 1.1//EN" "http://www.w3.org/Graphics/SVG/1.1/DTD/svg11.dtd"><svg t="1534232018234" class="icon" style="" viewBox="0 0 1024 1024" version="1.1" xmlns="http://www.w3.org/2000/svg" p-id="1265" xmlns:xlink="http://www.w3.org/1999/xlink" width="32" height="32"><defs><style type="text/css"></style></defs><path d="M818.5 730.63l0.08 54.64L780 823.95l-54.63 0.08-38.7-38.58-0.07-54.64 38.57-38.68 54.65-0.08 38.68 38.58zM413.07 355l280.38 279.58A137.39 137.39 0 0 0 629 699.26L348.57 419.65l-0.65-1.21a154.54 154.54 0 0 0 63.94-64.12z" fill="#FFFFFF" p-id="1266"></path><path d="M693.45 634.58a137.39 137.39 0 1 1-37.78 26.82 136.89 136.89 0 0 1 37.78-26.82z m125.12 150.69l-0.08-54.64L779.81 692l-54.64 0.08-38.58 38.68 0.08 54.64 38.69 38.6 54.63-0.08zM384.38 173.92a153.62 153.62 0 1 1-258.08 73.86l31.61 31.52a53.29 53.29 0 0 0 75.36-0.11l39-39.12a53.29 53.29 0 0 0-0.11-75.36l-31.61-31.52a153.5 153.5 0 0 1 143.83 40.73z" fill="#FFD72E" p-id="1267"></path><path d="M275.63 457.55a174.91 174.91 0 0 1-168.25-128.1A176 176 0 0 1 105.6 243a21.26 21.26 0 0 1 35.72-10.24l31.61 31.52a32.06 32.06 0 0 0 45.29-0.07l39-39.12a32 32 0 0 0-0.07-45.29l-31.61-31.52a21.26 21.26 0 0 1 10.14-35.75 174.77 174.77 0 0 1 163.72 46.33A173.41 173.41 0 0 1 449 257.6a176.34 176.34 0 0 1-18.32 106.63 174.67 174.67 0 0 1-155 93.31z m-131.53-162a132.57 132.57 0 0 0 113.16 118.19 132.31 132.31 0 0 0 149.65-150.07 132.55 132.55 0 0 0-118.54-112.82 74.55 74.55 0 0 1-1 104.23l-39 39.12a74.64 74.64 0 0 1-104.27 1.32z" fill="#26251E" p-id="1268"></path><path d="M615.49 715.85l-1.52-1.51L333.56 434.7l30.03-30.11L643.97 684.2l1.49 1.49-29.97 30.16zM679.99 651.16l-1.52-1.51-280.41-279.63 30.03-30.11 280.38 279.61 1.49 1.49-29.97 30.15z" fill="#26251E" p-id="1269"></path><path d="M752.58 916.16a158.13 158.13 0 1 1 111.67-270.09c61.74 61.57 61.88 161.88 0.31 223.62a157.09 157.09 0 0 1-111.75 46.47z m-0.13-273.72a115.1 115.1 0 0 0-49.81 11.31 115.62 115.62 0 0 0 50 219.88h0.17a115.6 115.6 0 1 0-0.3-231.2z" fill="#26251E" p-id="1270"></path><path d="M725.36 845.29a21.26 21.26 0 0 1-15-6.21l-38.7-38.58a21.26 21.26 0 0 1-6.25-15l-0.08-54.64a21.26 21.26 0 0 1 6.21-15l38.58-38.68a21.26 21.26 0 0 1 15-6.25l54.64-0.08a21.27 21.27 0 0 1 15 6.21l38.68 38.58a21.26 21.26 0 0 1 6.25 15l0.08 54.64a21.26 21.26 0 0 1-6.21 15L795 839a21.26 21.26 0 0 1-15 6.25l-54.63 0.08z m-17.44-68.68l26.22 26.14 37-0.05 26.14-26.21-0.05-37L771 713.32l-37 0.05-26.14 26.21z" fill="#26251E" p-id="1271"></path></svg>