<?xml version="1.0" standalone="no"?><!DOCTYPE svg PUBLIC "-//W3C//DTD SVG 1.1//EN" "http://www.w3.org/Graphics/SVG/1.1/DTD/svg11.dtd"><svg t="1518140303119" class="icon" style="" viewBox="0 0 1367 1024" version="1.1" xmlns="http://www.w3.org/2000/svg" p-id="1219" xmlns:xlink="http://www.w3.org/1999/xlink" width="42.71875" height="32"><defs><style type="text/css"></style></defs><path d="M786.614154 717.56202l50.805459-87.963315 16.942925 9.786871-50.805459 87.961372z" fill="#ACACBC" p-id="1220"></path><path d="M1295.324222 1021.202856a34.332739 59.300238 30.01 1 0 59.318163-102.700673 34.332739 59.300238 30.01 1 0-59.318163 102.700673Z" fill="#28282D" p-id="1221"></path><path d="M841.565189 759.385563l59.318163-102.700673 458.098169 264.589716-59.318163 102.700673-458.098169-264.589716Z" fill="#28282D" p-id="1222"></path><path d="M850.77089 764.471642a34.332739 59.300238 30.01 1 0 59.318163-102.700673 34.332739 59.300238 30.01 1 0-59.318163 102.700673Z" fill="#39393D" p-id="1223"></path><path d="M862.396211 745.485083a21.644975 37.072363 30.01 1 0 37.08357-64.204746 21.644975 37.072363 30.01 1 0-37.08357 64.204746Z" fill="#DCDCE5" p-id="1224"></path><path d="M883.291806 757.82284l8.121723-14.067291 437.018658 252.414609-8.12561 14.067291z" fill="#39393D" p-id="1225"></path><path d="M722.806166 664.852425l37.072363-64.188816 139.600376 80.630448-37.074306 64.186872z" fill="#DCDCE5" p-id="1226"></path><path d="M803.320119 727.198884a29.669549 50.789915 30.01 1 0 50.805268-87.961848 29.669549 50.789915 30.01 1 0-50.805268 87.961848Z" fill="#ACACBC" p-id="1227"></path><path d="M786.863011 717.713296a29.669549 50.789915 30.01 1 0 50.805268-87.961848 29.669549 50.789915 30.01 1 0-50.805268 87.961848Z" fill="#BABACC" p-id="1228"></path><path d="M793.192453 705.512088a21.644975 37.072363 30.01 1 0 37.08357-64.204746 21.644975 37.072363 30.01 1 0-37.08357 64.204746Z" fill="#DCDCE5" p-id="1229"></path><path d="M722.80228 664.844653l37.074306-64.186873 69.875965 40.356027-37.074306 64.188815z" fill="#DCDCE5" p-id="1230"></path><path d="M422.893077 422.893077m-422.893077 0a422.893077 422.893077 0 1 0 845.786154 0 422.893077 422.893077 0 1 0-845.786154 0Z" fill="#28282D" p-id="1231"></path><path d="M418.035587 422.893077m-387.258531 0a387.258531 387.258531 0 1 0 774.517062 0 387.258531 387.258531 0 1 0-774.517062 0Z" fill="#9797A5" p-id="1232"></path><path d="M418.035587 422.893077m-373.871288 0a373.871288 373.871288 0 1 0 747.742576 0 373.871288 373.871288 0 1 0-747.742576 0Z" fill="#F4F4F9" p-id="1233"></path><path d="M484.738639 752.289187c-206.482184 0-373.871288-167.447394-373.871288-373.871288a373.05523 373.05523 0 0 1 134.552472-287.233097A373.871288 373.871288 0 0 0 44.144869 422.893077c0 206.482184 167.408534 373.871288 373.890718 373.871288a372.355751 372.355751 0 0 0 239.318816-86.638191 372.219742 372.219742 0 0 1-172.615764 42.163013z" fill="#EDEDF4" p-id="1234"></path><path d="M322.168165 106.57333c212.602621 0 389.823285 151.359388 429.849003 352.187453A335.166808 335.166808 0 0 0 306.876787 106.864779c5.090649-0.17487 10.181299-0.291449 15.291378-0.291449z" fill="#FFFFFF" p-id="1235"></path></svg>