<?xml version="1.0" standalone="no"?><!DOCTYPE svg PUBLIC "-//W3C//DTD SVG 1.1//EN" "http://www.w3.org/Graphics/SVG/1.1/DTD/svg11.dtd"><svg t="1534234894731" class="icon" style="" viewBox="0 0 1024 1024" version="1.1" xmlns="http://www.w3.org/2000/svg" p-id="28640" xmlns:xlink="http://www.w3.org/1999/xlink" width="32" height="32"><defs><style type="text/css"></style></defs><path d="M955.4 267.2h-34.3v438.3c0 9.9-8 17.9-17.9 17.9H480.8v13.7c0 9.9 8 17.9 17.9 17.9h456.7c9.9 0 17.9-8 17.9-17.9v-452c0-9.9-8-17.9-17.9-17.9z" fill="#EAA937" p-id="28641"></path><path d="M921.1 705.5V267.2H498.7c-9.9 0-17.9 8-17.9 17.9v438.3h422.4c9.9 0 17.9-8 17.9-17.9z" fill="#FDC351" p-id="28642"></path><path d="M413.5 355.4h-25.6V724c0 3.4-2.8 6.2-6.2 6.2H93.3c-1 0-1.9-0.2-2.9-0.3 7.9 16.2 24.4 27.5 43.7 27.5h288.3c3.4 0 6.2-2.8 6.2-6.2V370.6c0-8.4-6.7-15.2-15.1-15.2z" fill="#DEDEDD" p-id="28643"></path><path d="M381.7 730.2c3.4 0 6.2-2.8 6.2-6.2V355.4H258c-15.5 0-30.3 6.8-40.4 18.6L98.1 513.8c-8.2 9.6-12.7 21.9-12.7 34.5v160.3c0 7.7 1.9 14.8 5.1 21.3 1 0.1 1.9 0.3 2.9 0.3h288.3z" fill="#FFFFFF" p-id="28644"></path><path d="M946.9 772.6H459.8c-18.3 0-33.2-14.9-33.2-33.2V251.9c0-18.3 14.9-33.2 33.2-33.2h487.1c18.3 0 33.2 14.9 33.2 33.2v487.6c-0.1 18.2-15 33.1-33.2 33.1zM459.8 249.2c-1.5 0-2.7 1.2-2.7 2.7v487.6c0 1.5 1.2 2.7 2.7 2.7h487.1c1.5 0 2.7-1.2 2.7-2.7V251.9c0-1.5-1.2-2.7-2.7-2.7H459.8z" fill="#0D5083" p-id="28645"></path><path d="M422.4 772.6H134.1c-35.3 0-64-28.7-64-64V548.3c0-16.3 5.8-32 16.4-44.4L206 364.1c13-15.2 31.9-23.9 52-23.9h155.5c16.8 0 30.4 13.6 30.4 30.4v380.6c0 11.8-9.6 21.4-21.5 21.4z m-9-402l-155.4 0.1c-11.1 0-21.6 4.8-28.8 13.3L109.7 523.7c-5.9 6.9-9.1 15.6-9.1 24.6v160.3c0 18.5 15 33.5 33.5 33.5h279.3V370.6z" fill="#0D5083" p-id="28646"></path><path d="M321 666.4c21.5 17.5 35.3 44.1 35.3 74 0 52.6-42.6 95.2-95.2 95.2-9.9 0-19.4-1.5-28.4-4.3 16.4 13.3 37.2 21.2 59.9 21.2 52.6 0 95.2-42.6 95.2-95.2 0.1-42.6-28-78.8-66.8-90.9zM784.1 666.4c21.5 17.5 35.3 44.1 35.3 74 0 52.6-42.6 95.2-95.2 95.2-9.9 0-19.4-1.5-28.4-4.3 16.4 13.3 37.2 21.2 59.9 21.2 52.6 0 95.2-42.6 95.2-95.2 0.1-42.6-28-78.8-66.8-90.9z" fill="#B0D8F3" p-id="28647"></path><path d="M356.4 740.4c0-29.9-13.8-56.5-35.3-74-9-2.8-18.5-4.3-28.4-4.3-52.6 0-95.2 42.6-95.2 95.2 0 29.9 13.8 56.5 35.3 74 9 2.8 18.5 4.3 28.4 4.3 52.5 0.1 95.2-42.6 95.2-95.2zM819.4 740.4c0-29.9-13.8-56.5-35.3-74-9-2.8-18.5-4.3-28.4-4.3-52.6 0-95.2 42.6-95.2 95.2 0 29.9 13.8 56.5 35.3 74 9 2.8 18.5 4.3 28.4 4.3 52.6 0.1 95.2-42.6 95.2-95.2z" fill="#DFEDF9" p-id="28648"></path><path d="M292.7 872.9c-63.7 0-115.6-51.8-115.6-115.6S229 641.8 292.7 641.8s115.6 51.8 115.6 115.6-51.9 115.5-115.6 115.5z m0-190.4c-41.3 0-74.9 33.6-74.9 74.9s33.6 74.9 74.9 74.9 74.9-33.6 74.9-74.9-33.6-74.9-74.9-74.9zM755.8 872.9c-63.7 0-115.6-51.8-115.6-115.6S692 641.8 755.8 641.8s115.6 51.8 115.6 115.6-51.9 115.5-115.6 115.5z m0-190.4c-41.3 0-74.9 33.6-74.9 74.9s33.6 74.9 74.9 74.9 74.9-33.6 74.9-74.9-33.7-74.9-74.9-74.9z" fill="#0D5083" p-id="28649"></path><path d="M359.1 414.2v135.9H148v29.5h239.9V414.2z" fill="#B0D8F3" p-id="28650"></path><path d="M359.1 414.2h-118L148 533.8v16.3h211.1z" fill="#DFEDF9" p-id="28651"></path><path d="M387.9 589.8H148c-5.6 0-10.2-4.5-10.2-10.2v-45.8c0-2.3 0.8-4.5 2.1-6.2L233.1 408c1.9-2.5 4.9-3.9 8-3.9h146.8c5.6 0 10.2 4.5 10.2 10.2v165.4c0 5.5-4.6 10.1-10.2 10.1z m-229.8-20.3h219.6V424.3H246.1l-88 113v32.2z" fill="#0D5083" p-id="28652"></path><path d="M50.5 670.6h84.7v49.1H50.5z" fill="#B0D8F3" p-id="28653"></path><path d="M49.7 670.6h69.7v49.1H49.7z" fill="#DFEDF9" p-id="28654"></path><path d="M138.8 725.7H54.1c-5.6 0-10.2-4.5-10.2-10.2v-49.1c0-5.6 4.5-10.2 10.2-10.2h84.7c5.6 0 10.2 4.5 10.2 10.2v49.1c0 5.7-4.5 10.2-10.2 10.2z m-74.5-20.3h64.4v-28.8H64.3v28.8z" fill="#0D5083" p-id="28655"></path><path d="M687.9 340.8H593c-8.4 0-15.2-6.8-15.2-15.2 0-8.4 6.8-15.2 15.2-15.2h94.9c8.4 0 15.2 6.8 15.2 15.2 0 8.4-6.8 15.2-15.2 15.2zM538.4 340.8h-4.1c-8.4 0-15.2-6.8-15.2-15.2 0-8.4 6.8-15.2 15.2-15.2h4.1c8.4 0 15.2 6.8 15.2 15.2 0.1 8.4-6.8 15.2-15.2 15.2z" fill="#FFFFFF" p-id="28656"></path></svg>